<svg id="Layer_1" data-name="Layer 1" xmlns="http://www.w3.org/2000/svg" viewBox="0 0 500 180"><defs><style>.cls-1{fill:#1adbab;}.cls-2{fill:#2b2d42;}.cls-3,.cls-4{fill:none;stroke:#2b2d42;stroke-linecap:round;stroke-miterlimit:10;stroke-width:2.98px;}.cls-4{stroke-dasharray:22.21 22.21;}.cls-5{font-size:40px;font-family:OpenSans-Light, Open Sans;font-weight:300;}</style></defs><path class="cls-1" d="M140.84,94.61H128.43l-20-34.83h-.29c.4,6.16.6,10.54.6,13.17V94.61H100v-46h12.31l20,34.47h.22q-.48-9-.48-12.69V48.58h8.79Z"/><path class="cls-1" d="M157,94.61h-9.6v-46H173.8v8H157V68.44h15.62v8H157Z"/><path class="cls-1" d="M202,94.61h-9.76V56.7h-12.5V48.58h34.76V56.7H202Z"/><path class="cls-2" d="M221.13,50.31q0-4.7,5.23-4.69t5.22,4.69a4.58,4.58,0,0,1-1.3,3.48A5.49,5.49,0,0,1,226.36,55Q221.13,55,221.13,50.31Zm10,44.3h-9.6V59.41h9.6Z"/><path class="cls-2" d="M253.36,95.24q-16.43,0-16.43-18,0-9,4.47-13.72t12.82-4.73a24.33,24.33,0,0,1,11,2.39l-2.83,7.43c-1.51-.61-2.92-1.11-4.22-1.5a13.86,13.86,0,0,0-3.9-.58q-7.5,0-7.5,10.64,0,10.34,7.5,10.33a16.92,16.92,0,0,0,5.13-.74,18.37,18.37,0,0,0,4.72-2.31v8.22a15.6,15.6,0,0,1-4.71,2A26.28,26.28,0,0,1,253.36,95.24Z"/><path class="cls-2" d="M279.3,75.47l4.19-5.36,9.86-10.7h10.83l-14,15.27L305,94.61H293.94L283.8,80.35l-4.12,3.3v11h-9.6v-49h9.6V67.47l-.5,8Z"/><path class="cls-2" d="M325.28,95.24q-8.5,0-13.29-4.69t-4.78-13.29q0-8.85,4.42-13.68t12.23-4.83q7.47,0,11.62,4.25t4.16,11.74V79.4h-22.7a9.21,9.21,0,0,0,2.42,6.39,8.5,8.5,0,0,0,6.36,2.3,26.51,26.51,0,0,0,6-.66,29.81,29.81,0,0,0,5.92-2.11v7.43a22.64,22.64,0,0,1-5.39,1.88A34.64,34.64,0,0,1,325.28,95.24Zm-1.35-29.66a6.1,6.1,0,0,0-4.79,1.93,9,9,0,0,0-2,5.5h13.47a8.06,8.06,0,0,0-1.85-5.5A6.31,6.31,0,0,0,323.93,65.58Z"/><path class="cls-2" d="M362.28,87.59a20.92,20.92,0,0,0,6-1.1v7.14a21.53,21.53,0,0,1-8.81,1.61q-5.76,0-8.39-2.91c-1.76-1.94-2.63-4.86-2.63-8.74v-17h-4.6V62.56l5.29-3.22L352,51.91h6.14v7.5H368v7.21h-9.86v17a3.74,3.74,0,0,0,1.15,3A4.55,4.55,0,0,0,362.28,87.59Z"/><path class="cls-2" d="M400,84.16q0,5.41-3.76,8.25T385,95.24a35.09,35.09,0,0,1-6.55-.52,25.33,25.33,0,0,1-5.07-1.53V85.26a34,34,0,0,0,6,2.11,24.83,24.83,0,0,0,5.91.85q5.22,0,5.22-3a2.55,2.55,0,0,0-.69-1.84,10.19,10.19,0,0,0-2.39-1.6q-1.71-.9-4.54-2.1a28,28,0,0,1-6-3.15,8.74,8.74,0,0,1-2.77-3.32,10.9,10.9,0,0,1-.87-4.61,8.35,8.35,0,0,1,3.64-7.26q3.63-2.56,10.31-2.56a29.21,29.21,0,0,1,12.37,2.77l-2.89,6.92q-2.66-1.12-5-1.85a15.27,15.27,0,0,0-4.69-.73q-4.24,0-4.25,2.3a2.72,2.72,0,0,0,1.37,2.24,37.13,37.13,0,0,0,6,2.8,27.46,27.46,0,0,1,6,3.12,9.18,9.18,0,0,1,2.84,3.33A10.25,10.25,0,0,1,400,84.16Z"/><path class="cls-2" d="M100.93,124.13v5.78H100V116.63h3.16a5.92,5.92,0,0,1,3.65.92,3.23,3.23,0,0,1,1.18,2.74,3.6,3.6,0,0,1-.7,2.26,3.87,3.87,0,0,1-2.14,1.31l3.61,6h-1.11l-3.43-5.78Zm0-.8h2.53a4.06,4.06,0,0,0,2.61-.75,2.68,2.68,0,0,0,.93-2.21,2.62,2.62,0,0,0-.91-2.21,5,5,0,0,0-3-.69h-2.19Z"/><path class="cls-2" d="M114.82,130.1a4.32,4.32,0,0,1-3.36-1.33,5.33,5.33,0,0,1-1.2-3.72,5.77,5.77,0,0,1,1.16-3.78,3.82,3.82,0,0,1,3.13-1.42,3.38,3.38,0,0,1,2.76,1.22,5,5,0,0,1,1,3.3v.73H111.2a4.68,4.68,0,0,0,1,3.11,3.36,3.36,0,0,0,2.67,1.07,8.05,8.05,0,0,0,1.48-.12,9,9,0,0,0,1.62-.51v.82a6.79,6.79,0,0,1-1.54.49A8.3,8.3,0,0,1,114.82,130.1Zm-.27-9.45a3,3,0,0,0-2.29.94,4.43,4.43,0,0,0-1,2.71h6.1a4.33,4.33,0,0,0-.74-2.68A2.46,2.46,0,0,0,114.55,120.65Z"/><path class="cls-2" d="M127,129.91l-.23-1.56h-.07a4.68,4.68,0,0,1-1.53,1.35,4.18,4.18,0,0,1-1.86.4,3.18,3.18,0,0,1-2.26-.75,2.64,2.64,0,0,1-.81-2.06,2.54,2.54,0,0,1,1.2-2.24,6.45,6.45,0,0,1,3.48-.85l1.89,0v-.66a3.33,3.33,0,0,0-.58-2.12,2.2,2.2,0,0,0-1.84-.72,6.11,6.11,0,0,0-2.84.76l-.34-.78a7.46,7.46,0,0,1,3.21-.76,3.24,3.24,0,0,1,2.44.84,3.75,3.75,0,0,1,.8,2.64v6.56Zm-3.64-.63a3.15,3.15,0,0,0,3.41-3.42v-1l-1.73.07a6.64,6.64,0,0,0-3,.65,1.89,1.89,0,0,0-.89,1.72,1.86,1.86,0,0,0,.57,1.44A2.31,2.31,0,0,0,123.4,129.28Z"/><path class="cls-2" d="M131.8,129.91h-.9V115.78h.9Z"/><path class="cls-2" d="M147.42,129.91h-7.26V116.63h7.26v.86h-6.33v5h6v.85h-6v5.7h6.33Z"/><path class="cls-2" d="M152.36,129.91,148.55,120h.92l2.56,6.71a20,20,0,0,1,.76,2.26h.06c.24-.83.5-1.58.76-2.27l2.55-6.7h.93l-3.82,9.87Z"/><path class="cls-2" d="M162.73,130.1a4.32,4.32,0,0,1-3.36-1.33,5.33,5.33,0,0,1-1.2-3.72,5.82,5.82,0,0,1,1.16-3.78,3.84,3.84,0,0,1,3.14-1.42,3.36,3.36,0,0,1,2.75,1.22,5,5,0,0,1,1,3.3v.73h-7.12a4.73,4.73,0,0,0,.95,3.11,3.36,3.36,0,0,0,2.67,1.07,8.05,8.05,0,0,0,1.48-.12,9.31,9.31,0,0,0,1.63-.51v.82a7,7,0,0,1-1.55.49A8.3,8.3,0,0,1,162.73,130.1Zm-.26-9.45a2.93,2.93,0,0,0-2.29.94,4.37,4.37,0,0,0-1,2.71h6.1a4.33,4.33,0,0,0-.74-2.68A2.46,2.46,0,0,0,162.47,120.65Z"/><path class="cls-2" d="M175.84,129.91v-6.4a3.13,3.13,0,0,0-.63-2.17,2.52,2.52,0,0,0-1.94-.67,3.37,3.37,0,0,0-2.6.89,4.27,4.27,0,0,0-.82,2.9v5.45H169V120h.77l.17,1.35h.05a3.72,3.72,0,0,1,3.43-1.54q3.36,0,3.36,3.61v6.45Z"/><path class="cls-2" d="M182.53,129.3a6.52,6.52,0,0,0,1.49-.15v.73a4.88,4.88,0,0,1-1.5.22,2.5,2.5,0,0,1-1.94-.7,3.28,3.28,0,0,1-.62-2.2v-6.38H178.5v-.53l1.46-.4.46-2.24h.46V120h2.9v.78h-2.9v6.25a2.81,2.81,0,0,0,.4,1.68A1.43,1.43,0,0,0,182.53,129.3Z"/><path class="cls-2" d="M192.28,127.34a2.32,2.32,0,0,1-1,2,4.85,4.85,0,0,1-2.86.72,6.87,6.87,0,0,1-3.14-.61v-1a7,7,0,0,0,3.14.74,4.06,4.06,0,0,0,2.22-.49,1.46,1.46,0,0,0,.76-1.29,1.57,1.57,0,0,0-.6-1.25,6.59,6.59,0,0,0-2-1,11.18,11.18,0,0,1-2.08-.93,2.69,2.69,0,0,1-.9-.87,2.12,2.12,0,0,1-.31-1.18,2,2,0,0,1,.93-1.76,4.54,4.54,0,0,1,2.61-.64,7.8,7.8,0,0,1,3,.6l-.33.82a7.12,7.12,0,0,0-2.7-.6,3.86,3.86,0,0,0-1.92.4,1.22,1.22,0,0,0-.71,1.1,1.53,1.53,0,0,0,.55,1.24,7.86,7.86,0,0,0,2.15,1,10.86,10.86,0,0,1,1.94.86,2.89,2.89,0,0,1,.92.88A2.17,2.17,0,0,1,192.28,127.34Z"/><path class="cls-2" d="M198.84,125.26v-.74h4.32v.74Z"/><path class="cls-2" d="M218.7,120.45a3.53,3.53,0,0,1-1.31,3,5.85,5.85,0,0,1-3.71,1h-2.05v5.48h-.93V116.63H214Q218.7,116.63,218.7,120.45Zm-7.07,3.18h1.83a5.57,5.57,0,0,0,3.24-.74,2.8,2.8,0,0,0,1-2.4,2.71,2.71,0,0,0-.95-2.28,4.73,4.73,0,0,0-2.92-.74h-2.2Z"/><path class="cls-2" d="M229.53,125a5.62,5.62,0,0,1-1.17,3.78,4.08,4.08,0,0,1-3.24,1.36,4.19,4.19,0,0,1-2.29-.63,4,4,0,0,1-1.51-1.8,6.39,6.39,0,0,1-.53-2.71A5.55,5.55,0,0,1,222,121.2a4,4,0,0,1,3.22-1.35,3.94,3.94,0,0,1,3.19,1.37A5.62,5.62,0,0,1,229.53,125Zm-7.8,0a5,5,0,0,0,.9,3.18,3.38,3.38,0,0,0,5.06,0,5.07,5.07,0,0,0,.89-3.18,5,5,0,0,0-.9-3.17,3.07,3.07,0,0,0-2.54-1.12,3,3,0,0,0-2.52,1.12A5,5,0,0,0,221.73,125Z"/><path class="cls-2" d="M240.16,129.91l-2.17-6.6c-.13-.45-.31-1.1-.53-2h-.06l-.19.67-.41,1.32-2.19,6.58h-.89L230.89,120h1l1.58,5.72c.37,1.42.62,2.46.73,3.13h.06c.35-1.42.61-2.36.78-2.83l2-6h.82l1.93,6c.44,1.43.71,2.37.8,2.83h.06c.05-.39.29-1.45.73-3.16l1.5-5.67h.91l-2.68,9.87Z"/><path class="cls-2" d="M249.7,130.1a4.31,4.31,0,0,1-3.35-1.33,5.34,5.34,0,0,1-1.21-3.72,5.77,5.77,0,0,1,1.17-3.78,3.82,3.82,0,0,1,3.13-1.42,3.36,3.36,0,0,1,2.75,1.22,5,5,0,0,1,1,3.3v.73h-7.11a4.68,4.68,0,0,0,.95,3.11,3.35,3.35,0,0,0,2.66,1.07,8.17,8.17,0,0,0,1.49-.12,9,9,0,0,0,1.62-.51v.82a7,7,0,0,1-1.54.49A8.41,8.41,0,0,1,249.7,130.1Zm-.26-9.45a3,3,0,0,0-2.29.94,4.49,4.49,0,0,0-1,2.71h6.11a4.27,4.27,0,0,0-.75-2.68A2.43,2.43,0,0,0,249.44,120.65Z"/><path class="cls-2" d="M259.82,119.85a7.3,7.3,0,0,1,1.34.13l-.17.86a5.41,5.41,0,0,0-1.28-.16,2.47,2.47,0,0,0-2.07,1.08,4.33,4.33,0,0,0-.81,2.7v5.45h-.9V120h.76l.09,1.78h.07a4.06,4.06,0,0,1,1.29-1.53A3.09,3.09,0,0,1,259.82,119.85Z"/><path class="cls-2" d="M267.16,130.1a4.32,4.32,0,0,1-3.36-1.33,5.33,5.33,0,0,1-1.2-3.72,5.77,5.77,0,0,1,1.16-3.78,3.82,3.82,0,0,1,3.13-1.42,3.38,3.38,0,0,1,2.76,1.22,5,5,0,0,1,1,3.3v.73h-7.11a4.68,4.68,0,0,0,.95,3.11,3.36,3.36,0,0,0,2.67,1.07,8.13,8.13,0,0,0,1.48-.12,9,9,0,0,0,1.62-.51v.82a6.79,6.79,0,0,1-1.54.49A8.3,8.3,0,0,1,267.16,130.1Zm-.27-9.45a3,3,0,0,0-2.29.94,4.49,4.49,0,0,0-1,2.71h6.11a4.33,4.33,0,0,0-.74-2.68A2.46,2.46,0,0,0,266.89,120.65Z"/><path class="cls-2" d="M277,119.85a4.12,4.12,0,0,1,1.86.39,3.69,3.69,0,0,1,1.4,1.34h.05c0-.77-.05-1.52-.05-2.25v-3.55h.89v14.13h-.59l-.23-1.5h-.07A3.67,3.67,0,0,1,277,130.1a3.86,3.86,0,0,1-3.12-1.28,5.56,5.56,0,0,1-1.08-3.7,6.18,6.18,0,0,1,1.07-3.92A3.73,3.73,0,0,1,277,119.85Zm0,.82a2.8,2.8,0,0,0-2.42,1.13,5.58,5.58,0,0,0-.82,3.3q0,4.2,3.26,4.2a3,3,0,0,0,2.46-1,5.13,5.13,0,0,0,.78-3.2V125a5.51,5.51,0,0,0-.77-3.29A2.93,2.93,0,0,0,277,120.67Z"/><path class="cls-2" d="M293.46,119.85a3.76,3.76,0,0,1,3.12,1.3,6,6,0,0,1,1.05,3.81,5.8,5.8,0,0,1-1.11,3.8,3.8,3.8,0,0,1-3.1,1.34,4.09,4.09,0,0,1-1.9-.44,3.29,3.29,0,0,1-1.33-1.23h-.09l-.25,1.48h-.56V115.78h.9v3.55c0,.53,0,1,0,1.47l0,.78h.07a3.52,3.52,0,0,1,1.35-1.31A4.06,4.06,0,0,1,293.46,119.85Zm0,.82a2.91,2.91,0,0,0-2.5,1,5.56,5.56,0,0,0-.75,3.29v.16a5.13,5.13,0,0,0,.78,3.2,3,3,0,0,0,2.45,1,2.8,2.8,0,0,0,2.43-1.13,5.42,5.42,0,0,0,.82-3.22C296.67,122.09,295.59,120.67,293.44,120.67Z"/><path class="cls-2" d="M298.71,120h.92l2.09,5.54c.64,1.7,1,2.85,1.21,3.44H303c.25-.78.66-1.94,1.24-3.49l2.09-5.49h.93l-4.43,11.47a8.82,8.82,0,0,1-.9,1.89,2.29,2.29,0,0,1-.85.74,2.6,2.6,0,0,1-1.17.24,4,4,0,0,1-1.16-.19v-.78a4.14,4.14,0,0,0,1.14.15,1.5,1.5,0,0,0,.82-.22,2.11,2.11,0,0,0,.64-.68,8.72,8.72,0,0,0,.66-1.45c.25-.66.41-1.1.49-1.3Z"/><path class="cls-2" d="M314,116.63h3.64a6.22,6.22,0,0,1,3.62.84,2.91,2.91,0,0,1,1.15,2.52,2.76,2.76,0,0,1-.7,1.93,3.42,3.42,0,0,1-2.06,1V123a4,4,0,0,1,2.34,1,2.92,2.92,0,0,1,.75,2.14,3.43,3.43,0,0,1-1.22,2.82,5.33,5.33,0,0,1-3.45,1H314Zm.93,5.92h2.92a4.6,4.6,0,0,0,2.72-.63,2.23,2.23,0,0,0,.85-1.94,2.1,2.1,0,0,0-1-1.93,5.45,5.45,0,0,0-2.85-.6h-2.68Zm0,.81v5.74H318q3.69,0,3.69-3c0-1.82-1.3-2.74-3.89-2.74Z"/><path class="cls-2" d="M326.3,129.91h-.9V115.78h.9Z"/><path class="cls-2" d="M337.77,125a5.62,5.62,0,0,1-1.17,3.78,4.07,4.07,0,0,1-3.24,1.36,4.21,4.21,0,0,1-2.29-.63,4,4,0,0,1-1.51-1.8A6.55,6.55,0,0,1,329,125a5.55,5.55,0,0,1,1.17-3.76,4,4,0,0,1,3.22-1.35,3.92,3.92,0,0,1,3.19,1.37A5.62,5.62,0,0,1,337.77,125ZM330,125a5,5,0,0,0,.89,3.18,3.38,3.38,0,0,0,5.06,0,6,6,0,0,0,0-6.35,3.07,3.07,0,0,0-2.54-1.12,3,3,0,0,0-2.52,1.12A5,5,0,0,0,330,125Z"/><path class="cls-2" d="M344.45,130.1a4.24,4.24,0,0,1-3.32-1.34,5.37,5.37,0,0,1-1.2-3.72,5.46,5.46,0,0,1,1.25-3.82,4.34,4.34,0,0,1,3.4-1.37,7,7,0,0,1,2.46.44l-.25.8a7.25,7.25,0,0,0-2.22-.42,3.38,3.38,0,0,0-2.76,1.12,4.94,4.94,0,0,0-.93,3.23,4.81,4.81,0,0,0,.93,3.13,3.24,3.24,0,0,0,2.62,1.13,6.44,6.44,0,0,0,2.5-.48v.83A5.65,5.65,0,0,1,344.45,130.1Z"/><path class="cls-2" d="M350.23,125.58l5-5.54h1.09l-3.89,4.22,4.22,5.65h-1.08l-3.75-5-1.62,1.47v3.51h-.9V115.78h.9v7.08l-.06,2.72Z"/><path class="cls-2" d="M362.29,130.1a4.24,4.24,0,0,1-3.32-1.34,5.36,5.36,0,0,1-1.19-3.72,5.46,5.46,0,0,1,1.24-3.82,4.36,4.36,0,0,1,3.41-1.37,7,7,0,0,1,2.45.44l-.25.8a7.25,7.25,0,0,0-2.22-.42,3.36,3.36,0,0,0-2.75,1.12,4.88,4.88,0,0,0-.94,3.23,4.75,4.75,0,0,0,.94,3.13,3.2,3.2,0,0,0,2.61,1.13,6.44,6.44,0,0,0,2.5-.48v.83A5.65,5.65,0,0,1,362.29,130.1Z"/><path class="cls-2" d="M374.07,129.91v-6.4a3.18,3.18,0,0,0-.62-2.17,2.55,2.55,0,0,0-1.95-.67,3.35,3.35,0,0,0-2.59.89,4.22,4.22,0,0,0-.82,2.9v5.45h-.9V115.78h.9v4.5l0,1.26h.06a3.38,3.38,0,0,1,1.4-1.29,4.89,4.89,0,0,1,2.1-.4q3.36,0,3.36,3.61v6.45Z"/><path class="cls-2" d="M384.16,129.91l-.23-1.56h-.07a4.68,4.68,0,0,1-1.53,1.35,4.18,4.18,0,0,1-1.86.4,3.18,3.18,0,0,1-2.26-.75,2.64,2.64,0,0,1-.81-2.06,2.54,2.54,0,0,1,1.2-2.24,6.48,6.48,0,0,1,3.48-.85l1.89,0v-.66a3.33,3.33,0,0,0-.58-2.12,2.2,2.2,0,0,0-1.84-.72,6.11,6.11,0,0,0-2.84.76l-.34-.78a7.5,7.5,0,0,1,3.22-.76,3.23,3.23,0,0,1,2.43.84,3.75,3.75,0,0,1,.8,2.64v6.56Zm-3.64-.63a3.15,3.15,0,0,0,3.41-3.42v-1l-1.73.07a6.64,6.64,0,0,0-3,.65,1.89,1.89,0,0,0-.89,1.72,1.86,1.86,0,0,0,.57,1.44A2.31,2.31,0,0,0,380.52,129.28Z"/><path class="cls-2" d="M387.89,117.3c0-.59.19-.88.57-.88a.5.5,0,0,1,.44.23,1.38,1.38,0,0,1,0,1.29.49.49,0,0,1-.44.24C388.08,118.18,387.89,117.88,387.89,117.3Zm1,12.61H388V120h.9Z"/><path class="cls-2" d="M399.11,129.91v-6.4a3.13,3.13,0,0,0-.63-2.17,2.52,2.52,0,0,0-1.94-.67,3.33,3.33,0,0,0-2.59.89,4.22,4.22,0,0,0-.83,2.9v5.45h-.9V120H393l.17,1.35h0a3.73,3.73,0,0,1,3.43-1.54q3.36,0,3.36,3.61v6.45Z"/><path class="cls-2" d="M464.16,5c2.28,15.35,14.93,27.52,30.84,29.66V145.33c-15.92,2.14-28.56,14.31-30.84,29.67H36.47c-2.29-15.37-14.94-27.55-30.87-29.67L5,35.26C20.93,33.12,33.56,21,35.84,5.59L464.16,5m4.63-5L31.21.6c0,16.57-14,30-31.21,30L.62,150c17.24,0,31.22,13.43,31.22,30h437c0-16.57,14-30,31.21-30V30c-17.24,0-31.21-13.43-31.21-30Z"/><line class="cls-3" x1="425" y1="2" x2="425" y2="12.27"/><line class="cls-4" x1="425" y1="34.48" x2="425" y2="156.63"/><line class="cls-3" x1="425" y1="167.73" x2="425" y2="178"/><line class="cls-3" x1="75" y1="2" x2="75" y2="12.27"/><line class="cls-4" x1="75" y1="34.48" x2="75" y2="156.63"/><line class="cls-3" x1="75" y1="167.73" x2="75" y2="178"/><text class="cls-5" transform="translate(54.28 147.18) rotate(-90)">81000</text><text class="cls-5" transform="translate(445.72 32.82) rotate(90)">81000</text></svg>